<svg width="82" height="27" viewBox="0 0 82 27" fill="none" xmlns="http://www.w3.org/2000/svg">
<path d="M10.2737 6.28087V15.6173C10.2737 17.0627 9.86355 18.176 9.04319 18.9573C8.23585 19.7386 7.14205 20.1293 5.76176 20.1293C4.31637 20.1293 3.15745 19.7191 2.28501 18.8987C1.41257 18.0784 0.976346 16.913 0.976346 15.4025H4.29684C4.29684 15.9754 4.41403 16.4116 4.64842 16.7111C4.88281 16.9976 5.22137 17.1408 5.6641 17.1408C6.06777 17.1408 6.38029 17.0106 6.60165 16.7502C6.82302 16.4898 6.9337 16.1121 6.9337 15.6173V6.28087H10.2737ZM18.1282 20.1488C17.0604 20.1488 16.0968 19.9209 15.2374 19.4652C14.391 19.0094 13.7204 18.3584 13.2255 17.512C12.7437 16.6656 12.5029 15.6759 12.5029 14.543C12.5029 13.4232 12.7503 12.4401 13.2451 11.5937C13.7399 10.7342 14.417 10.0767 15.2764 9.6209C16.1359 9.16514 17.0995 8.93727 18.1672 8.93727C19.235 8.93727 20.1986 9.16514 21.058 9.6209C21.9174 10.0767 22.5945 10.7342 23.0894 11.5937C23.5842 12.4401 23.8316 13.4232 23.8316 14.543C23.8316 15.6629 23.5777 16.6525 23.0698 17.512C22.575 18.3584 21.8914 19.0094 21.0189 19.4652C20.1595 19.9209 19.1959 20.1488 18.1282 20.1488ZM18.1282 17.258C18.7662 17.258 19.3066 17.0236 19.7493 16.5549C20.2051 16.0861 20.433 15.4155 20.433 14.543C20.433 13.6706 20.2116 13 19.7689 12.5312C19.3392 12.0624 18.8053 11.828 18.1672 11.828C17.5161 11.828 16.9757 12.0624 16.546 12.5312C16.1163 12.987 15.9015 13.6576 15.9015 14.543C15.9015 15.4155 16.1098 16.0861 16.5265 16.5549C16.9562 17.0236 17.4901 17.258 18.1282 17.258Z" fill="#F2994A"/>
<path d="M39.1783 22.973C45.0551 22.973 49.819 18.2092 49.819 12.3324C49.819 6.45564 45.0551 1.69177 39.1783 1.69177C33.3016 1.69177 28.5377 6.45564 28.5377 12.3324C28.5377 18.2092 33.3016 22.973 39.1783 22.973Z" stroke="#F2994A" stroke-width="2.50368" stroke-linejoin="round"/>
<path d="M46.8283 19.9824L52.1392 25.2933M42.7191 8.16566C42.2546 7.7 41.7027 7.33071 41.095 7.07904C40.4874 6.82736 39.836 6.69825 39.1783 6.69913C37.795 6.69913 36.5432 7.25933 35.6375 8.16566H42.7191Z" stroke="#F2994A" stroke-width="2.50368" stroke-linecap="round" stroke-linejoin="round"/>
<path d="M60.7595 10.6366C61.072 10.1287 61.5213 9.71856 62.1073 9.40604C62.6932 9.09352 63.3638 8.93727 64.1191 8.93727C65.0176 8.93727 65.8314 9.16514 66.5606 9.6209C67.2898 10.0767 67.8628 10.7277 68.2795 11.5741C68.7092 12.4205 68.924 13.4037 68.924 14.5235C68.924 15.6434 68.7092 16.633 68.2795 17.4924C67.8628 18.3388 67.2898 18.9964 66.5606 19.4652C65.8314 19.9209 65.0176 20.1488 64.1191 20.1488C63.3508 20.1488 62.6802 19.9991 62.1073 19.6996C61.5343 19.3871 61.0851 18.9769 60.7595 18.469V19.9926H57.4195V5.53864H60.7595V10.6366ZM65.5254 14.5235C65.5254 13.6901 65.291 13.0391 64.8222 12.5703C64.3665 12.0885 63.8001 11.8476 63.1229 11.8476C62.4588 11.8476 61.8924 12.0885 61.4236 12.5703C60.9679 13.0521 60.74 13.7097 60.74 14.543C60.74 15.3764 60.9679 16.034 61.4236 16.5158C61.8924 16.9976 62.4588 17.2385 63.1229 17.2385C63.787 17.2385 64.3535 16.9976 64.8222 16.5158C65.291 16.021 65.5254 15.3569 65.5254 14.5235ZM75.3054 20.1488C74.3549 20.1488 73.5085 19.986 72.7662 19.6605C72.024 19.335 71.4381 18.8922 71.0083 18.3323C70.5786 17.7594 70.3377 17.1213 70.2856 16.4181H73.5866C73.6257 16.7958 73.8015 17.1018 74.114 17.3362C74.4265 17.5705 74.8106 17.6877 75.2664 17.6877C75.6831 17.6877 76.0021 17.6096 76.2235 17.4534C76.4579 17.2841 76.5751 17.0692 76.5751 16.8088C76.5751 16.4963 76.4123 16.2684 76.0867 16.1252C75.7612 15.9689 75.2338 15.7996 74.5046 15.6173C73.7233 15.435 73.0723 15.2462 72.5514 15.0509C72.0305 14.8425 71.5813 14.5235 71.2037 14.0938C70.826 13.6511 70.6372 13.0586 70.6372 12.3164C70.6372 11.6913 70.8065 11.1249 71.1451 10.617C71.4966 10.0962 72.0045 9.686 72.6686 9.38651C73.3457 9.08701 74.1465 8.93727 75.0711 8.93727C76.4383 8.93727 77.5126 9.27583 78.2939 9.95295C79.0882 10.6301 79.544 11.5286 79.6612 12.6484H76.5751C76.523 12.2708 76.3537 11.9713 76.0672 11.7499C75.7938 11.5286 75.4292 11.4179 74.9734 11.4179C74.5828 11.4179 74.2833 11.496 74.0749 11.6523C73.8666 11.7955 73.7624 11.9973 73.7624 12.2578C73.7624 12.5703 73.9252 12.8047 74.2507 12.9609C74.5893 13.1172 75.1101 13.2734 75.8133 13.4297C76.6206 13.638 77.2782 13.8464 77.7861 14.0547C78.2939 14.2501 78.7366 14.5756 79.1143 15.0313C79.5049 15.4741 79.7067 16.0731 79.7198 16.8283C79.7198 17.4664 79.5375 18.0393 79.1728 18.5472C78.8213 19.042 78.3069 19.4326 77.6298 19.7191C76.9657 20.0056 76.1909 20.1488 75.3054 20.1488Z" fill="#F2994A"/>
</svg>
