<svg width="400" height="498" viewBox="0 0 400 498" fill="none" xmlns="http://www.w3.org/2000/svg">
<path d="M167.191 396.824C91.6988 325.367 34.4595 180.425 123.033 114.454C205.154 53.2883 233.033 136.406 323.353 102.336C413.674 68.2658 388.801 -67.2939 489.346 -86.6099C547.706 -97.8214 612.161 -59.289 639.505 13.2878C666.849 85.8646 657.083 192.486 566.997 317.452C481.902 435.497 392.914 465.718 319.719 461.239C246.523 456.76 189.12 417.58 167.191 396.824Z" stroke="#F2994A" stroke-opacity="0.5" stroke-width="1.18571" stroke-miterlimit="10"/>
<path d="M557.035 316.091C479.144 424.476 397.509 452.76 330.092 449.011C263.129 445.179 210.381 409.716 189.653 390.525C119.309 324.98 65.7494 191.265 145.538 128.531C219.211 70.6063 245.568 143.674 328.473 111.71C330.83 110.792 333.106 109.802 335.305 108.746C394.886 80.1667 397.785 1.94917 440.494 -37.9562C452.088 -48.7887 466.572 -56.8675 485.828 -60.3271C541.22 -70.2782 600.647 -34.1069 625.508 33.1557C650.416 100.779 640.336 199.963 557.035 316.091Z" stroke="#F2994A" stroke-opacity="0.5" stroke-width="1.18571" stroke-miterlimit="10"/>
<path d="M547.072 314.729C476.387 413.455 402.103 439.802 340.466 436.783C279.735 433.598 231.585 401.918 212.115 384.226C146.722 324.809 97.0328 202.126 168.045 142.608C233.265 87.944 258.209 151.203 333.593 121.083C335.766 120.214 337.86 119.269 339.891 118.273C394.769 91.4246 399.758 21.1209 440.042 -14.2604C451.042 -23.9214 464.584 -31.1102 482.311 -34.0445C534.743 -42.7235 589.134 -8.92496 611.512 53.0241C633.983 115.693 623.589 207.439 547.072 314.729Z" stroke="#F2994A" stroke-opacity="0.5" stroke-width="1.18571" stroke-miterlimit="10"/>
<path d="M537.109 313.368C473.629 402.434 406.691 427 350.839 424.555C296.333 422.169 252.823 394.083 234.576 377.928C174.254 324.515 128.31 213.016 190.55 156.686C247.317 105.31 270.794 158.581 338.712 130.456C340.699 129.633 342.615 128.736 344.477 127.799C394.652 102.682 401.746 40.2971 439.59 9.43561C449.999 0.947105 462.6 -5.34337 478.793 -7.76203C528.275 -15.1524 577.619 16.2566 597.515 72.8918C617.549 130.608 606.842 214.916 537.109 313.368Z" stroke="#F2994A" stroke-opacity="0.5" stroke-width="1.18571" stroke-miterlimit="10"/>
<path d="M527.146 312.006C471.037 391.529 411.284 414.087 361.212 412.327C312.938 410.63 274.064 386.246 257.037 371.628C201.803 324.208 159.583 223.943 213.055 170.763C261.37 122.712 283.374 165.94 343.831 139.829C345.631 139.051 347.368 138.202 349.063 137.326C394.534 113.94 403.752 59.4795 439.137 33.1312C448.96 25.8163 460.619 20.4352 475.274 18.5204C521.817 12.4398 566.237 41.3939 583.516 92.7598C601.251 145.477 590.282 222.523 527.146 312.006Z" stroke="#F2994A" stroke-opacity="0.5" stroke-width="1.18571" stroke-miterlimit="10"/>
<path d="M517.183 310.645C468.306 380.526 415.88 401.169 371.585 400.099C329.544 399.084 295.311 378.405 279.499 365.329C229.374 323.881 190.859 234.926 235.561 184.84C275.433 140.166 295.95 173.274 348.951 149.202C350.565 148.469 352.123 147.669 353.649 146.853C394.418 125.197 405.783 78.6744 438.685 56.827C447.93 50.6883 458.643 46.2282 471.757 44.803C515.373 40.0628 554.745 66.5707 569.52 112.628C584.841 160.386 573.571 230.024 517.183 310.645Z" stroke="#F2994A" stroke-opacity="0.5" stroke-width="1.18571" stroke-miterlimit="10"/>
<path d="M507.22 309.283C465.565 369.515 420.478 388.242 381.958 387.871C346.153 387.527 316.566 370.557 301.961 359.03C256.973 323.528 222.156 245.984 258.068 198.917C289.523 157.691 308.517 180.575 354.072 158.576C355.499 157.886 356.878 157.136 358.236 156.38C394.301 136.456 407.844 97.892 438.233 80.5229C446.907 75.5657 456.671 72.0394 468.24 71.0858C508.941 67.7298 543.244 91.7518 555.523 132.496C568.424 175.299 556.851 237.517 507.22 309.283Z" stroke="#F2994A" stroke-opacity="0.5" stroke-width="1.18571" stroke-miterlimit="10"/>
<path d="M497.257 307.921C462.809 358.493 425.078 375.3 392.331 375.643C362.764 375.954 337.832 362.698 324.422 352.732C284.607 323.138 251.169 255.62 280.574 212.994C305.671 176.612 321.067 187.829 359.191 167.948C360.432 167.301 361.632 166.602 362.823 165.906C394.185 147.713 409.938 117.145 437.782 104.218C445.894 100.452 454.704 97.8729 464.722 97.368C502.522 95.4623 531.731 116.938 541.526 152.364C551.993 190.217 540.117 245 497.257 307.921Z" stroke="#F2994A" stroke-opacity="0.5" stroke-width="1.18571" stroke-miterlimit="10"/>
<path d="M487.294 306.56C460.03 347.454 429.68 362.331 402.704 363.416C379.376 364.353 359.111 354.822 346.883 346.433C312.285 322.694 285.009 268.43 303.079 227.071C317.948 193.041 333.589 195.018 364.31 177.322C365.364 176.715 366.387 176.069 367.408 175.433C394.067 158.971 412.065 136.46 437.33 127.914C444.889 125.357 452.737 123.736 461.204 123.651C496.109 123.3 520.198 142.13 527.53 172.232C535.544 205.141 523.359 252.465 487.294 306.56Z" stroke="#F2994A" stroke-opacity="0.5" stroke-width="1.18571" stroke-miterlimit="10"/>
<path d="M477.331 305.199C457.213 336.39 434.282 349.308 413.077 351.188C395.987 352.703 380.411 346.914 369.345 340.134C340.016 322.163 316.81 279.804 325.585 241.148C332.466 210.839 346.053 202.114 369.43 186.695C370.294 186.125 371.141 185.536 371.995 184.959C393.95 170.229 414.208 155.871 436.878 151.61C443.89 150.292 450.767 149.635 457.687 149.933C489.688 151.311 508.636 167.328 513.533 192.1C519.061 220.073 506.55 259.897 477.331 305.199Z" stroke="#F2994A" stroke-opacity="0.5" stroke-width="1.18571" stroke-miterlimit="10"/>
<path d="M348.091 255.226C347.302 227.412 359.329 207.486 376.581 194.486C393.833 181.486 416.311 175.413 436.426 175.306C477.697 175.086 496.556 188.927 499.536 211.968C502.515 235.009 489.615 267.252 467.369 303.837C445.122 340.423 415.811 346.179 391.807 333.835C367.803 321.491 349.107 291.045 348.091 255.226Z" stroke="#F2994A" stroke-opacity="0.5" stroke-width="1.18571" stroke-miterlimit="10"/>
</svg>
