<svg width="26" height="25" viewBox="0 0 26 25" fill="none" xmlns="http://www.w3.org/2000/svg">
<path d="M18.2915 5.34285V5.90669H18.8553H22.7459C23.6795 5.90669 24.5164 6.74362 24.5164 7.67721V12.5602H0.744255V7.67721C0.744255 6.74369 1.5816 5.90669 2.51478 5.90669H6.40538H6.96921V5.34285V3.00849C6.96921 2.07531 7.80622 1.23797 8.73974 1.23797H16.5209C17.4545 1.23797 18.2915 2.07531 18.2915 3.00849V5.34285ZM16.5209 5.90669H17.0848V5.34285V3.00849V2.44466H16.5209H8.73974H8.1759V3.00849V5.34285V5.90669H8.73974H16.5209ZM14.9647 18.3566C15.7062 18.3566 16.3066 17.7561 16.3066 17.0146V15.2441H24.5164V21.6834C24.5164 22.6165 23.679 23.4539 22.7459 23.4539H2.51478C1.5816 23.4539 0.744255 22.6169 0.744255 21.6834V15.2441H8.95402V17.0146C8.95402 17.754 9.55661 18.3566 10.296 18.3566H14.9647Z" fill="#2F80ED" stroke="#2F80ED" stroke-width="1.12767"/>
</svg>
