<svg width="17" height="17" viewBox="0 0 17 17" fill="none" xmlns="http://www.w3.org/2000/svg">
<path d="M11.934 11.7988L15.3923 15.2571L11.934 11.7988ZM1.55908 7.35242C1.55908 8.13097 1.71243 8.90189 2.01036 9.62117C2.3083 10.3405 2.74499 10.994 3.29551 11.5445C3.84602 12.095 4.49958 12.5317 5.21886 12.8297C5.93814 13.1276 6.70907 13.281 7.48761 13.281C8.26616 13.281 9.03708 13.1276 9.75636 12.8297C10.4756 12.5317 11.1292 12.095 11.6797 11.5445C12.2302 10.994 12.6669 10.3405 12.9649 9.62117C13.2628 8.90189 13.4161 8.13097 13.4161 7.35242C13.4161 5.78008 12.7915 4.27213 11.6797 3.16032C10.5679 2.0485 9.05996 1.42389 7.48761 1.42389C5.91527 1.42389 4.40732 2.0485 3.29551 3.16032C2.18369 4.27213 1.55908 5.78008 1.55908 7.35242V7.35242Z" stroke="#F2994A" stroke-width="1.77856" stroke-linecap="round" stroke-linejoin="round"/>
</svg>
