<svg width="18" height="21" viewBox="0 0 18 21" fill="none" xmlns="http://www.w3.org/2000/svg">
<path d="M5.56097 0.937902H5.56145H12.2564H12.2564C12.321 0.937899 12.3847 0.95324 12.4421 0.982661C12.4996 1.01208 12.5493 1.05474 12.5871 1.10712C12.6248 1.1595 12.6496 1.22011 12.6594 1.28394C12.6691 1.34769 12.6636 1.41283 12.6432 1.47403C12.6432 1.47411 12.6432 1.4742 12.6431 1.47429L11.1368 5.99231L10.7465 7.16286H11.9804H16.0889C16.4468 7.16286 16.6317 7.59504 16.3809 7.85426C16.3808 7.8543 16.3808 7.85435 16.3807 7.8544L4.90514 19.6983L4.90509 19.6983C4.43702 20.1815 3.62797 19.7463 3.7753 19.0881C3.77531 19.088 3.77532 19.088 3.77532 19.088L5.09292 13.2076L5.33479 12.1281L4.22856 12.1239L2.60016 12.1176C2.6001 12.1176 2.60003 12.1176 2.59997 12.1176C2.45201 12.117 2.30636 12.0809 2.17521 12.0123C2.04401 11.9438 1.93115 11.8448 1.84608 11.7236C1.76102 11.6025 1.70622 11.4627 1.68629 11.316C1.66636 11.1694 1.68186 11.0201 1.73147 10.8807C1.73149 10.8807 1.73151 10.8806 1.73152 10.8806L5.17699 1.20922L5.18278 1.19295C5.2121 1.12032 5.26177 1.05755 5.32599 1.0123C5.39476 0.963844 5.47684 0.937856 5.56097 0.937902Z" fill="#F2994A" stroke="#F2F2F2" stroke-width="1.77856"/>
</svg>
